<mxfile host="app.diagrams.net" modified="2021-08-27T01:34:55.396Z" agent="5.0 (Macintosh; Intel Mac OS X 10_15_7) AppleWebKit/537.36 (KHTML, like Gecko) Chrome/92.0.4515.159 Safari/537.36" etag="2HN4VB24usJiFLfbNHBQ" version="15.0.2" type="github">
  <diagram name="Page-1" id="c7558073-3199-34d8-9f00-42111426c3f3">
    <mxGraphModel dx="2767" dy="693" grid="1" gridSize="10" guides="1" tooltips="1" connect="1" arrows="1" fold="1" page="1" pageScale="1" pageWidth="1654" pageHeight="2336" background="none" math="0" shadow="0">
      <root>
        <mxCell id="0" />
        <mxCell id="1" parent="0" />
        <mxCell id="Jseb_oOh7TeOHAUnvopO-108" value="" style="group" vertex="1" connectable="0" parent="1">
          <mxGeometry x="-10" y="140" width="730" height="340" as="geometry" />
        </mxCell>
        <mxCell id="Jseb_oOh7TeOHAUnvopO-96" value="" style="rounded=0;whiteSpace=wrap;html=1;fontSize=22;verticalAlign=top;align=left;fontColor=#66B2FF;labelBorderColor=none;" vertex="1" parent="Jseb_oOh7TeOHAUnvopO-108">
          <mxGeometry y="23.72093023255814" width="730" height="316.27906976744185" as="geometry" />
        </mxCell>
        <mxCell id="Jseb_oOh7TeOHAUnvopO-107" value="Feed Api Module" style="text;html=1;align=center;verticalAlign=middle;resizable=0;points=[];autosize=1;strokeColor=none;fontSize=24;fontColor=#66B2FF;" vertex="1" parent="Jseb_oOh7TeOHAUnvopO-108">
          <mxGeometry width="200" height="30" as="geometry" />
        </mxCell>
        <mxCell id="Jseb_oOh7TeOHAUnvopO-99" value="RemoteFeedLoader" style="rounded=0;whiteSpace=wrap;html=1;fontSize=24;align=center;verticalAlign=middle;labelBorderColor=none;strokeWidth=2;fontColor=#66B2FF;strokeColor=#66B2FF;" vertex="1" parent="Jseb_oOh7TeOHAUnvopO-108">
          <mxGeometry x="23" y="47.44186046511628" width="240" height="47.44186046511628" as="geometry" />
        </mxCell>
        <mxCell id="Jseb_oOh7TeOHAUnvopO-103" value="&amp;lt;HTTPClient&amp;gt;" style="rounded=0;whiteSpace=wrap;html=1;fontSize=24;align=center;verticalAlign=middle;labelBorderColor=none;strokeWidth=2;fontColor=#66B2FF;strokeColor=#66B2FF;" vertex="1" parent="Jseb_oOh7TeOHAUnvopO-108">
          <mxGeometry x="23" y="118.6046511627907" width="240" height="47.44186046511628" as="geometry" />
        </mxCell>
        <mxCell id="Jseb_oOh7TeOHAUnvopO-105" value="URLSession&lt;br style=&quot;font-size: 24px;&quot;&gt;HTTPClient" style="rounded=0;whiteSpace=wrap;html=1;fontSize=24;align=center;verticalAlign=middle;labelBorderColor=none;strokeWidth=2;fontColor=#66B2FF;strokeColor=#66B2FF;" vertex="1" parent="Jseb_oOh7TeOHAUnvopO-108">
          <mxGeometry x="23" y="229.30232558139537" width="240" height="47.44186046511628" as="geometry" />
        </mxCell>
        <mxCell id="Jseb_oOh7TeOHAUnvopO-106" style="edgeStyle=orthogonalEdgeStyle;rounded=0;orthogonalLoop=1;jettySize=auto;html=1;fontSize=22;fontColor=#66B2FF;strokeColor=#66B2FF;endArrow=block;endFill=0;dashed=1;strokeWidth=2;" edge="1" parent="Jseb_oOh7TeOHAUnvopO-108" source="Jseb_oOh7TeOHAUnvopO-105" target="Jseb_oOh7TeOHAUnvopO-103">
          <mxGeometry relative="1" as="geometry" />
        </mxCell>
        <mxCell id="Jseb_oOh7TeOHAUnvopO-98" value="&lt;font style=&quot;font-size: 24px&quot;&gt;RemoteFeedLoader&lt;/font&gt;" style="rounded=0;whiteSpace=wrap;html=1;fontSize=22;align=center;verticalAlign=middle;labelBorderColor=none;strokeWidth=2;fontColor=#66B2FF;strokeColor=#66B2FF;" vertex="1" parent="Jseb_oOh7TeOHAUnvopO-108">
          <mxGeometry x="443" y="47.44186046511628" width="240" height="47.44186046511628" as="geometry" />
        </mxCell>
        <mxCell id="Jseb_oOh7TeOHAUnvopO-101" style="edgeStyle=orthogonalEdgeStyle;rounded=0;orthogonalLoop=1;jettySize=auto;html=1;exitX=0;exitY=0.5;exitDx=0;exitDy=0;entryX=1;entryY=0.5;entryDx=0;entryDy=0;fontSize=22;fontColor=#66B2FF;fillColor=#b1ddf0;strokeColor=#66B2FF;strokeWidth=2;" edge="1" parent="Jseb_oOh7TeOHAUnvopO-108" source="Jseb_oOh7TeOHAUnvopO-98" target="Jseb_oOh7TeOHAUnvopO-99">
          <mxGeometry relative="1" as="geometry" />
        </mxCell>
        <mxCell id="Jseb_oOh7TeOHAUnvopO-104" style="edgeStyle=orthogonalEdgeStyle;rounded=0;orthogonalLoop=1;jettySize=auto;html=1;exitX=0.25;exitY=1;exitDx=0;exitDy=0;entryX=1;entryY=0.25;entryDx=0;entryDy=0;fontSize=22;fontColor=#66B2FF;strokeColor=#66B2FF;strokeWidth=2;" edge="1" parent="Jseb_oOh7TeOHAUnvopO-108" source="Jseb_oOh7TeOHAUnvopO-98" target="Jseb_oOh7TeOHAUnvopO-103">
          <mxGeometry relative="1" as="geometry" />
        </mxCell>
        <mxCell id="Jseb_oOh7TeOHAUnvopO-111" value="&lt;font style=&quot;font-size: 24px&quot;&gt;&amp;lt;Feed Feature&amp;gt;&lt;/font&gt;" style="rounded=0;whiteSpace=wrap;html=1;fontSize=22;align=center;verticalAlign=middle;labelBorderColor=none;strokeWidth=2;fontColor=#FF6666;strokeColor=#FF6666;" vertex="1" parent="1">
          <mxGeometry x="800" y="260.0018604651163" width="240" height="47.44186046511628" as="geometry" />
        </mxCell>
        <mxCell id="Jseb_oOh7TeOHAUnvopO-112" style="edgeStyle=orthogonalEdgeStyle;rounded=0;orthogonalLoop=1;jettySize=auto;html=1;exitX=0.75;exitY=1;exitDx=0;exitDy=0;entryX=0;entryY=0.5;entryDx=0;entryDy=0;dashed=1;fontSize=24;fontColor=#FF6666;endArrow=block;endFill=0;strokeColor=#66B2FF;strokeWidth=2;" edge="1" parent="1" source="Jseb_oOh7TeOHAUnvopO-98" target="Jseb_oOh7TeOHAUnvopO-111">
          <mxGeometry relative="1" as="geometry" />
        </mxCell>
        <mxCell id="Jseb_oOh7TeOHAUnvopO-113" value="" style="aspect=fixed;perimeter=ellipsePerimeter;html=1;align=center;shadow=0;dashed=0;spacingTop=3;image;image=img/lib/active_directory/internet_cloud.svg;fontSize=24;fontColor=#FF6666;strokeColor=#FF6666;strokeWidth=2;fillColor=none;" vertex="1" parent="1">
          <mxGeometry x="50" y="500" width="158.74" height="100" as="geometry" />
        </mxCell>
        <mxCell id="Jseb_oOh7TeOHAUnvopO-114" style="edgeStyle=orthogonalEdgeStyle;rounded=0;orthogonalLoop=1;jettySize=auto;html=1;exitX=0.5;exitY=1;exitDx=0;exitDy=0;entryX=0.547;entryY=0;entryDx=0;entryDy=0;entryPerimeter=0;fontSize=24;fontColor=#FF6666;endArrow=block;endFill=1;strokeColor=#66B2FF;strokeWidth=2;" edge="1" parent="1" source="Jseb_oOh7TeOHAUnvopO-105" target="Jseb_oOh7TeOHAUnvopO-113">
          <mxGeometry relative="1" as="geometry" />
        </mxCell>
      </root>
    </mxGraphModel>
  </diagram>
</mxfile>
